# xmcd
#
# Track frame offsets:
#	157
#	15745
#	31230
#	48897
#	60987
#	86492
#	104610
#	127750
#	143975
#	166737
#	194252
#
# Disc length: 2898 seconds
#
# Revision: 1
# Processed by: cddbd v1.4PL0 Copyright (c) Steve Scherf et al.
# Submitted via: audiograbber 1.80
#
DISCID=830b500b
DTITLE=Norman Nardini - Breakdown in Paradise
DYEAR=1900
DGENRE=
TTITLE0=Looks are Deceiving
TTITLE1=Up Jumps the Devil
TTITLE2=Breakdown in Paradise
TTITLE3=Red Hot Lover
TTITLE4=Three Times your Fool
TTITLE5=Walk Out that Door
TTITLE6=Little Things
TTITLE7=I Never Cared
TTITLE8=Call Me on the Telephone
TTITLE9=When I Die and Go to Hell
TTITLE10=How the Hell do you Get to Heaven
EXTD=
EXTT0=
EXTT1=
EXTT2=
EXTT3=
EXTT4=
EXTT5=
EXTT6=
EXTT7=
EXTT8=
EXTT9=
EXTT10=
PLAYORDER=
